<svg xmlns="http://www.w3.org/2000/svg" viewBox="0 0 356.66 89.18"><defs><style>.cls-1{fill:#fff;}</style></defs><title>Asset 2</title><g id="Layer_2" data-name="Layer 2"><g id="Layer_1-2" data-name="Layer 1"><path class="cls-1" d="M17.16,15.32a14.16,14.16,0,0,1,2.12-7.39,15.45,15.45,0,0,1,2.6-3.16,16.17,16.17,0,0,1,3.58-2.52A19.57,19.57,0,0,1,30,.59,23.58,23.58,0,0,1,35.37,0,19.8,19.8,0,0,1,42,1,16.6,16.6,0,0,1,47,3.75V.82h5.5V9.21H47a17.13,17.13,0,0,0-2.32-2.34A13.75,13.75,0,0,0,42,5.15a13.31,13.31,0,0,0-3.08-1.06,17.15,17.15,0,0,0-3.62-.36,13.45,13.45,0,0,0-5.13.91,11.09,11.09,0,0,0-3.78,2.48,10.53,10.53,0,0,0-2.33,3.7,12.75,12.75,0,0,0-.79,4.52,12.82,12.82,0,0,0,.79,4.59,9.84,9.84,0,0,0,2.36,3.63A10.79,10.79,0,0,0,30.29,26a15.15,15.15,0,0,0,5.36.86,17.09,17.09,0,0,0,4.89-.64,11.7,11.7,0,0,0,3.72-1.79,8.62,8.62,0,0,0,2.45-2.77,9.22,9.22,0,0,0,1.11-3.56H38V15.13H53.16V29.84H47.84v-3.7a14.82,14.82,0,0,1-2.25,1.78,14.63,14.63,0,0,1-2.77,1.39,18.58,18.58,0,0,1-3.37.91,23.88,23.88,0,0,1-4,.32,23.85,23.85,0,0,1-7.77-1.17,17.2,17.2,0,0,1-5.73-3.23,13.79,13.79,0,0,1-3.56-4.83A14.78,14.78,0,0,1,17.16,15.32Zm6,13.4a20.43,20.43,0,0,0,2.67,1.57,17.29,17.29,0,0,0,2.82,1.07,21.19,21.19,0,0,0,3.17.62,32.4,32.4,0,0,0,3.7.2A29.42,29.42,0,0,0,38.71,32a20.08,20.08,0,0,0,2.85-.51,16.4,16.4,0,0,0,4.88-2.17V30.4a16.54,16.54,0,0,1-5.09,2.07,27.91,27.91,0,0,1-5.91.59A22.09,22.09,0,0,1,28.13,32,11.85,11.85,0,0,1,23.13,28.72ZM25,15.32a10.57,10.57,0,0,1,.71-3.94,9.06,9.06,0,0,1,2-3.16A9.4,9.4,0,0,1,31,6.12a11.88,11.88,0,0,1,4.35-.76,16.61,16.61,0,0,1,3,.25,11,11,0,0,1,2.45.71,8.56,8.56,0,0,1,2,1.15A10.14,10.14,0,0,1,44.3,9.05a16.47,16.47,0,0,0-2.1-1.3,13.62,13.62,0,0,0-2.1-.86,12.29,12.29,0,0,0-2.25-.49,20.12,20.12,0,0,0-2.55-.15,10.47,10.47,0,0,0-4,.71,8.77,8.77,0,0,0-3,1.93,8.53,8.53,0,0,0-1.85,2.88,9.73,9.73,0,0,0-.64,3.55,9.74,9.74,0,0,0,.47,3.08,8.47,8.47,0,0,0,1.46,2.68,11.19,11.19,0,0,0,2.57,2.25,17.7,17.7,0,0,0,3.75,1.78,13.92,13.92,0,0,1-3.87-1.17,9.71,9.71,0,0,1-2.88-2.06A8.7,8.7,0,0,1,25.58,19,10.2,10.2,0,0,1,25,15.32Zm14.38,4.36h7.18c0,.09-.07.23-.12.41s-.12.33-.18.47H39.33Zm9-8.84h5.78V2h.93v9.73H48.36Zm6.48,20.64V16.3h.93V32.36H49.24v-.88Z"/><path class="cls-1" d="M63,26.11h6.3V4.55H63V.82H97.65V9.91H92.4V4.55H74.75v9.18h11.7v2.92H74.75v9.46H92.4V20.75h5.25v9.09H63Zm1.4-19.93h3.92v.88H64.37Zm34.95,25.3V22.06h.94v10.3H64.37v-.88ZM76.43,6.18h15v.88H77.36v5.27h-.93Zm0,12.1H88.11V14.9H89v4.27H77.36v5.54h-.93ZM93.8,11.54h5.52V2h.94V12.43H93.8Z"/><path class="cls-1" d="M108.6,26.11h5.83V4.55h-6.29V.82h13.64L142.18,22V4.55h-6.3V.82h17.84V4.55h-6.3V29.84h-5L119.68,5.78V26.11H126v3.73H108.6Zm.94-19.93,3.91.88h-3.91Zm18.11,25.3V27.42h.93v4.94H110v-.88ZM121.36,9l.93,1V24.71h-.93Zm4.92-7,15,15.11v1.35L125,2Zm11,4.2h3.92v.88h-3.92Zm11.82,25.3V6.18h6.3V2h.93V7.06H150v25.3h-6.23v-.88Z"/><path class="cls-1" d="M162.39,26.11h6.3V4.55h-6.3V.82h34.67V9.91h-5.24V4.55H174.17v9.18h11.7v2.92h-11.7v9.46h17.65V20.75h5.24v9.09H162.39Zm1.4-19.93h3.92v.88h-3.92Zm35,25.3V22.06h.93v10.3H163.79v-.88Zm-22.9-25.3h15v.88H176.78v5.27h-.94Zm0,12.1h11.69V14.9h.93v4.27H176.78v5.54h-.94Zm17.37-6.74h5.53V2h.93V12.43h-6.46Z"/><path class="cls-1" d="M207.76,26.11h6.09V4.55h-6.44V.82h19.1c1.79,0,3.4,0,4.84.09a27.1,27.1,0,0,1,3.9.42,14.22,14.22,0,0,1,3.49,1.09,7.64,7.64,0,0,1,2.34,1.7,6,6,0,0,1,1.32,2.23,8.81,8.81,0,0,1,.41,2.72,7,7,0,0,1-1.68,4.66,10.56,10.56,0,0,1-5.06,3,7.53,7.53,0,0,1-.88.25l-.92.22a15.55,15.55,0,0,1,2.48,1.66A18.13,18.13,0,0,1,239,21.08a17,17,0,0,1,1.83,2.48A9.69,9.69,0,0,1,242,26.11h4.71v3.73H230.22V26.11h5.55a11.22,11.22,0,0,0-1.24-2.58,14,14,0,0,0-2-2.5,13.28,13.28,0,0,0-2.69-2,9.89,9.89,0,0,0-3.21-1.16h-7.51v8.27h5.69v3.73h-17Zm.91-19.93h3.71v.88h-3.71Zm17.84,25.3V27.42h.93v4.94H209.26v-.88Zm1-17.37a28.2,28.2,0,0,0,4.64-.32,9.41,9.41,0,0,0,2.95-.93,3.6,3.6,0,0,0,1.56-1.53,4.47,4.47,0,0,0,.46-2.07,3.78,3.78,0,0,0-1-2.6,6.33,6.33,0,0,0-3.26-1.72,12.46,12.46,0,0,0-2.38-.32c-.89,0-1.87-.07-2.94-.07h-8.42v9.56Zm-6.74-7.93h6.74c1.28,0,2.34,0,3.2.08a12.72,12.72,0,0,1,2.16.29,5.2,5.2,0,0,1,1.47.55,5.12,5.12,0,0,1,1.08.85,7.2,7.2,0,0,0-1.11-.37,13.22,13.22,0,0,0-1.58-.28c-.62-.08-1.35-.14-2.2-.18s-1.85-.06-3-.06h-5.8v5.65h-.94Zm0,13.29h2.82a19.72,19.72,0,0,1,4,.36,4.54,4.54,0,0,1,2.53,1.25c-.43-.13-.87-.24-1.29-.33a12.77,12.77,0,0,0-1.45-.22c-.54-.05-1.16-.1-1.86-.13s-1.56,0-2.56,0h-1.23v4.36h-.94Zm27.59,12V27.42h.93v4.94H231.22v-.88ZM237.84,17.65a10.15,10.15,0,0,0,2.8-1.31,9.07,9.07,0,0,0,2.09-1.95,8.64,8.64,0,0,0,1.3-2.48,8.87,8.87,0,0,0,.46-2.82,9.24,9.24,0,0,0-.21-2,6.26,6.26,0,0,0-.73-1.83,7.77,7.77,0,0,0-1.37-1.69A13,13,0,0,0,240,2a10.22,10.22,0,0,1,2.49,1.3A7.57,7.57,0,0,1,244.22,5a6.85,6.85,0,0,1,1,2,7.27,7.27,0,0,1,.31,2.13,9.78,9.78,0,0,1-.36,2.64,9.14,9.14,0,0,1-1.1,2.43,9,9,0,0,1-1.87,2.11,11.1,11.1,0,0,1-2.68,1.64,10,10,0,0,1,1.38,1.38,19.84,19.84,0,0,1,1.3,1.78A21.22,21.22,0,0,1,243.27,23a12.45,12.45,0,0,1,.77,1.74H243a19.82,19.82,0,0,0-.88-1.92A17.59,17.59,0,0,0,239.45,19,8.37,8.37,0,0,0,237.84,17.65Z"/><path class="cls-1" d="M250.34,26.11h5L270.72.82h5l15.06,25.29h6.07v3.73h-18V26.11h5.65l-3.39-5.94H264.84l-3.29,5.94h5.39v3.73h-16.6Zm18.28,5.37V27.4h.93v5H251.36v-.88Zm-2.87-9.68H281l.42.89H266.45l-1.1,2h-1.19Zm13.76-4.55-6.6-11.58-6.44,11.58Zm-6.18-8.93.56,1-3.76,6.5H269ZM279.46,2,293,24.71h-1.07L278.39,2Zm19.07,29.48V27.4h1v5H279.92v-.88Z"/><path class="cls-1" d="M303.24,26.11h6.06V4.55h-6.46V.82h18.28V4.55H314.6V26.11h16.2V19.35h5.25V29.84H303.24Zm1-19.7h4.08V7.3h-4.08Zm33.48,25.07V20.66h.94v11.7h-34v-.88ZM316.27,6.41h6.51V2h.93V7.3h-6.5V24.71h-.94Z"/><path class="cls-1" d="M.35,82.93H6.44V61.36H0V57.63H19.1c1.78,0,3.4,0,4.83.1a27.4,27.4,0,0,1,3.91.42,14,14,0,0,1,3.48,1.09,7.84,7.84,0,0,1,2.35,1.69A6.12,6.12,0,0,1,35,63.17a8.48,8.48,0,0,1,.41,2.72,7,7,0,0,1-1.68,4.66,10.47,10.47,0,0,1-5.06,3c-.27.09-.57.18-.87.25l-.92.22a15.4,15.4,0,0,1,2.47,1.65,19,19,0,0,1,2.29,2.2,17,17,0,0,1,1.83,2.48,9.33,9.33,0,0,1,1.1,2.55h4.71v3.73H22.8V82.93h5.55a11,11,0,0,0-1.23-2.59,14.29,14.29,0,0,0-2-2.49,13.35,13.35,0,0,0-2.7-2,10.18,10.18,0,0,0-3.2-1.17H11.68v8.28h5.69v3.73H.35ZM1.26,63H5v.88H1.26ZM19.1,88.29V84.24H20v4.94H1.84v-.89Zm1-17.37a28.43,28.43,0,0,0,4.64-.31,9.41,9.41,0,0,0,3-.93,3.66,3.66,0,0,0,1.56-1.53,4.64,4.64,0,0,0,.45-2.08,3.83,3.83,0,0,0-1-2.6,6.36,6.36,0,0,0-3.27-1.71A13.28,13.28,0,0,0,23,61.43c-.89,0-1.87-.07-2.94-.07H11.68v9.56ZM13.36,63H20.1c1.27,0,2.34,0,3.19.08a12.71,12.71,0,0,1,2.17.29,5.32,5.32,0,0,1,1.47.55,4.55,4.55,0,0,1,1.07.85,6,6,0,0,0-1.11-.37,11.3,11.3,0,0,0-1.57-.28C24.7,64,24,64,23.12,63.94s-1.86-.06-3-.06H14.29v5.64h-.93Zm0,13.29h2.82a19.79,19.79,0,0,1,4,.36,4.51,4.51,0,0,1,2.53,1.25c-.44-.13-.87-.24-1.3-.33A12.93,12.93,0,0,0,20,77.35c-.54-.06-1.16-.1-1.87-.13s-1.56,0-2.55,0H14.29v4.36h-.93Zm27.58,12V84.24h.93v4.94H23.81v-.89ZM30.43,74.47a10,10,0,0,0,2.79-1.31,8.71,8.71,0,0,0,2.09-2,8.61,8.61,0,0,0,1.31-2.47,8.86,8.86,0,0,0,.45-2.82,9.24,9.24,0,0,0-.21-2,6.23,6.23,0,0,0-.72-1.83,7.54,7.54,0,0,0-1.38-1.69,12.39,12.39,0,0,0-2.14-1.59,10.15,10.15,0,0,1,2.48,1.3,7.37,7.37,0,0,1,1.7,1.69,6.6,6.6,0,0,1,1,2,7.28,7.28,0,0,1,.32,2.13,9.78,9.78,0,0,1-.36,2.64A9.14,9.14,0,0,1,36.64,71a9.29,9.29,0,0,1-1.88,2.11,10.88,10.88,0,0,1-2.68,1.63,10.13,10.13,0,0,1,1.39,1.39,16.74,16.74,0,0,1,1.29,1.77c.41.63.77,1.26,1.1,1.89a13.75,13.75,0,0,1,.77,1.74h-1.1a17.51,17.51,0,0,0-.87-1.92,17.18,17.18,0,0,0-1.19-2A15.8,15.8,0,0,0,32,75.83,8.68,8.68,0,0,0,30.43,74.47Z"/><path class="cls-1" d="M46.42,82.93h6.3V61.36h-6.3V57.63H81.09v9.1H75.85V61.36H58.2v9.19H69.9v2.91H58.2v9.47H75.85V77.57h5.24v9.09H46.42ZM47.82,63h3.92v.88H47.82ZM82.77,88.29V78.87h.93V89.18H47.82v-.89ZM59.87,63h15v.88H60.81v5.27h-.94Zm0,12.1H71.56V71.72h.93V76H60.81v5.55h-.94Zm17.37-6.74h5.53V58.8h.93V69.25H77.24Z"/><path class="cls-1" d="M91.61,82.93h6.27V61.36h-6.3V57.63h34.3V66h-5.25V61.36H103.36v9.42h14.13V73.7H103.36v9.23H113v3.73H91.61ZM93,63H96.9v.88H93Zm21.71,25.29V84.24h.93v4.94H93v-.89ZM105,63H119.7v.88H106v5.5H105Zm0,12.33h14.15V72h.93v4.27H106v5.31H105Zm17-7.67h5.53V58.8h.93v9.75H122Z"/><path class="cls-1" d="M134.11,82.93h6.3V61.36h-6.3V57.63h34.67v9.1h-5.24V61.36H145.88v9.19h11.71v2.91H145.88v9.47h17.66V77.57h5.24v9.09H134.11ZM135.51,63h3.92v.88h-3.92Zm35,25.29V78.87h.93V89.18H135.51v-.89ZM147.56,63h15v.88H148.5v5.27h-.94Zm0,12.1h11.69V71.72h.93V76H148.5v5.55h-.94Zm17.37-6.74h5.53V58.8h.93V69.25h-6.46Z"/><path class="cls-1" d="M179.48,82.93h6.09V61.36h-6.44V57.63h19.1c1.79,0,3.4,0,4.84.1a27.25,27.25,0,0,1,3.9.42,14.22,14.22,0,0,1,3.49,1.09,7.92,7.92,0,0,1,2.34,1.69,6,6,0,0,1,1.32,2.24,8.76,8.76,0,0,1,.41,2.72,7,7,0,0,1-1.68,4.66,10.56,10.56,0,0,1-5.06,3c-.28.09-.57.18-.88.25l-.92.22a15,15,0,0,1,2.47,1.65,18.32,18.32,0,0,1,2.29,2.2,17,17,0,0,1,1.83,2.48,9.69,9.69,0,0,1,1.11,2.55h4.71v3.73H201.94V82.93h5.54a11,11,0,0,0-1.23-2.59,14.29,14.29,0,0,0-2-2.49,13.28,13.28,0,0,0-2.69-2,10.24,10.24,0,0,0-3.21-1.17h-7.51v8.28h5.69v3.73h-17ZM180.39,63h3.71v.88h-3.71Zm17.84,25.29V84.24h.93v4.94H181v-.89Zm1-17.37a28.34,28.34,0,0,0,4.64-.31,9.41,9.41,0,0,0,2.95-.93,3.66,3.66,0,0,0,1.56-1.53,4.52,4.52,0,0,0,.46-2.08,3.8,3.8,0,0,0-1-2.6,6.32,6.32,0,0,0-3.26-1.71,13.4,13.4,0,0,0-2.38-.33c-.89,0-1.87-.07-2.94-.07h-8.42v9.56ZM192.49,63h6.74c1.27,0,2.34,0,3.19.08a12.71,12.71,0,0,1,2.17.29,5.32,5.32,0,0,1,1.47.55,4.55,4.55,0,0,1,1.07.85,5.88,5.88,0,0,0-1.1-.37,11.48,11.48,0,0,0-1.58-.28c-.62-.08-1.35-.14-2.2-.18s-1.85-.06-3-.06h-5.81v5.64h-.93Zm0,13.29h2.82a19.72,19.72,0,0,1,4,.36,4.47,4.47,0,0,1,2.53,1.25c-.44-.13-.87-.24-1.3-.33a12.24,12.24,0,0,0-1.44-.22c-.54-.06-1.16-.1-1.87-.13s-1.55,0-2.55,0h-1.24v4.36h-.93Zm27.59,12V84.24H221v4.94H202.94v-.89ZM209.56,74.47a10.15,10.15,0,0,0,2.8-1.31,8.66,8.66,0,0,0,2.08-2,8.37,8.37,0,0,0,1.31-2.47,8.86,8.86,0,0,0,.45-2.82,9.92,9.92,0,0,0-.2-2,6.55,6.55,0,0,0-.73-1.83,7.77,7.77,0,0,0-1.37-1.69,12.5,12.5,0,0,0-2.15-1.59,10.15,10.15,0,0,1,2.48,1.3,7.42,7.42,0,0,1,1.71,1.69,6.85,6.85,0,0,1,1,2,7.62,7.62,0,0,1,.31,2.13,9.78,9.78,0,0,1-.36,2.64,9.14,9.14,0,0,1-1.1,2.43,9.24,9.24,0,0,1-1.87,2.11,11.14,11.14,0,0,1-2.69,1.63,10.13,10.13,0,0,1,1.39,1.39,18.35,18.35,0,0,1,1.3,1.77c.4.63.77,1.26,1.09,1.89a12.45,12.45,0,0,1,.77,1.74h-1.09a19.82,19.82,0,0,0-.88-1.92,17.18,17.18,0,0,0-1.19-2,15.8,15.8,0,0,0-1.43-1.79A8.37,8.37,0,0,0,209.56,74.47Z"/><path class="cls-1" d="M225.76,82.93h6.09V61.36h-6.44V57.63h19.1c1.79,0,3.4,0,4.84.1a27.1,27.1,0,0,1,3.9.42,14.22,14.22,0,0,1,3.49,1.09,7.79,7.79,0,0,1,2.34,1.69,6,6,0,0,1,1.32,2.24,8.76,8.76,0,0,1,.41,2.72,7,7,0,0,1-1.68,4.66,10.56,10.56,0,0,1-5.06,3c-.28.09-.57.18-.88.25l-.92.22a15.47,15.47,0,0,1,2.48,1.65A19,19,0,0,1,257,77.9a17,17,0,0,1,1.83,2.48A9.69,9.69,0,0,1,260,82.93h4.71v3.73H248.22V82.93h5.55a11.48,11.48,0,0,0-1.24-2.59,14.29,14.29,0,0,0-2-2.49,13.28,13.28,0,0,0-2.69-2,10.15,10.15,0,0,0-3.21-1.17h-7.51v8.28h5.69v3.73h-17ZM226.67,63h3.71v.88h-3.71Zm17.84,25.29V84.24h.93v4.94H227.26v-.89Zm1-17.37a28.34,28.34,0,0,0,4.64-.31,9.41,9.41,0,0,0,2.95-.93,3.66,3.66,0,0,0,1.56-1.53,4.52,4.52,0,0,0,.46-2.08,3.8,3.8,0,0,0-1-2.6,6.32,6.32,0,0,0-3.26-1.71,13.27,13.27,0,0,0-2.38-.33c-.89,0-1.87-.07-2.94-.07h-8.42v9.56ZM238.77,63h6.74c1.28,0,2.34,0,3.2.08a12.72,12.72,0,0,1,2.16.29,5.2,5.2,0,0,1,1.47.55,4.82,4.82,0,0,1,1.08.85,6.27,6.27,0,0,0-1.11-.37,11.48,11.48,0,0,0-1.58-.28c-.62-.08-1.35-.14-2.2-.18s-1.85-.06-3-.06h-5.8v5.64h-.94Zm0,13.29h2.82a19.72,19.72,0,0,1,4,.36,4.47,4.47,0,0,1,2.53,1.25c-.43-.13-.87-.24-1.29-.33a12.77,12.77,0,0,0-1.45-.22c-.54-.06-1.16-.1-1.86-.13s-1.56,0-2.56,0h-1.23v4.36h-.94Zm27.59,12V84.24h.93v4.94H249.22v-.89ZM255.84,74.47a10.15,10.15,0,0,0,2.8-1.31,8.9,8.9,0,0,0,2.09-2,8.58,8.58,0,0,0,1.3-2.47,8.87,8.87,0,0,0,.46-2.82,9.24,9.24,0,0,0-.21-2,6.26,6.26,0,0,0-.73-1.83,7.77,7.77,0,0,0-1.37-1.69A12.5,12.5,0,0,0,258,58.82a10.22,10.22,0,0,1,2.49,1.3,7.57,7.57,0,0,1,1.7,1.69,6.85,6.85,0,0,1,1,2,7.27,7.27,0,0,1,.31,2.13,9.78,9.78,0,0,1-.36,2.64,9.14,9.14,0,0,1-1.1,2.43,9.24,9.24,0,0,1-1.87,2.11,11.07,11.07,0,0,1-2.68,1.63,10.68,10.68,0,0,1,1.38,1.39,18.35,18.35,0,0,1,1.3,1.77c.4.63.77,1.26,1.09,1.89a12.45,12.45,0,0,1,.77,1.74H261a19.82,19.82,0,0,0-.88-1.92,17.59,17.59,0,0,0-2.62-3.76A8.37,8.37,0,0,0,255.84,74.47Z"/><path class="cls-1" d="M268.34,82.93h5l15.35-25.3h5l15.06,25.3h6.07v3.73h-18V82.93h5.65L299.18,77H282.84l-3.29,5.94h5.39v3.73h-16.6Zm18.28,5.36V84.21h.93v5H269.36v-.89Zm-2.87-9.67H299l.42.88H284.45l-1.1,2h-1.19Zm13.76-4.55-6.6-11.59-6.44,11.59Zm-6.18-8.93.56,1-3.76,6.5H287Zm6.13-6.32L311,81.53h-1.07l-13.5-22.71Zm19.07,29.47V84.21h1v5H297.92v-.89Z"/><path class="cls-1" d="M321.24,82.93h6.06V61.36h-6.46V57.63h18.28v3.73H332.6V82.93h16.2V76.17h5.25V86.66H321.24Zm1-19.7h4.08v.89h-4.08Zm33.48,25.06V77.48h.94v11.7h-34v-.89ZM334.27,63.23h6.51V58.8h.93v5.32h-6.5V81.53h-.94Z"/></g></g></svg>