<?xml version="1.0" encoding="UTF-8"?><svg id="Layer_2" xmlns="http://www.w3.org/2000/svg" viewBox="0 0 356.66 89.18"><defs><style>.cls-1{fill:#393939;}</style></defs><g id="Layer_1-2"><g><g><path class="cls-1" d="m17.16,15.32c0-1.29.18-2.56.54-3.81.36-1.25.89-2.44,1.59-3.58.7-1.13,1.57-2.19,2.6-3.16,1.03-.97,2.23-1.81,3.58-2.52,1.35-.71,2.86-1.26,4.51-1.66,1.66-.4,3.45-.59,5.4-.59,2.58,0,4.8.33,6.67,1,1.87.67,3.51,1.59,4.92,2.75V.82h5.5v8.39h-5.5c-.73-.89-1.5-1.67-2.32-2.34-.82-.68-1.69-1.25-2.63-1.71-.94-.47-1.97-.82-3.08-1.06-1.11-.24-2.32-.36-3.63-.36-1.93,0-3.64.3-5.13.91-1.49.61-2.75,1.43-3.78,2.48-1.03,1.05-1.8,2.28-2.33,3.7-.53,1.41-.79,2.92-.79,4.52s.26,3.19.79,4.59c.53,1.4,1.31,2.61,2.35,3.63,1.04,1.02,2.33,1.81,3.87,2.39,1.54.58,3.33.86,5.36.86,1.82,0,3.45-.21,4.9-.64,1.45-.43,2.69-1.03,3.72-1.79,1.03-.77,1.85-1.69,2.45-2.76.6-1.07.97-2.26,1.11-3.57h-9.79v-2.91h15.13v14.71h-5.32v-3.71c-.67.65-1.42,1.25-2.25,1.78-.83.54-1.76,1-2.77,1.39s-2.14.69-3.37.91c-1.23.22-2.56.33-4.01.33-2.91,0-5.49-.39-7.76-1.18s-4.18-1.86-5.74-3.23c-1.55-1.37-2.74-2.98-3.56-4.83-.82-1.85-1.22-3.85-1.22-5.99Zm5.97,13.41c.89.61,1.78,1.13,2.67,1.56.89.44,1.83.79,2.82,1.07.99.28,2.04.49,3.17.62,1.13.13,2.36.2,3.7.2,1.15,0,2.23-.05,3.23-.16,1-.11,1.95-.28,2.84-.51.89-.23,1.74-.53,2.54-.89.8-.36,1.58-.78,2.34-1.28v1.07c-1.6.98-3.3,1.67-5.09,2.06s-3.77.59-5.91.59c-2.86,0-5.3-.35-7.31-1.06-2.01-.71-3.68-1.8-5-3.28Zm1.82-13.41c0-1.41.24-2.73.71-3.94s1.15-2.27,2.04-3.16c.89-.89,1.97-1.59,3.25-2.1,1.28-.5,2.73-.76,4.35-.76,1.12,0,2.13.08,3.04.25.91.16,1.73.4,2.45.71.72.31,1.37.7,1.95,1.15.57.46,1.1.98,1.56,1.57-.71-.51-1.41-.94-2.1-1.29-.68-.35-1.38-.64-2.1-.86-.71-.23-1.47-.39-2.25-.49-.79-.1-1.64-.15-2.55-.15-1.48,0-2.8.24-3.96.71-1.17.47-2.15,1.12-2.96,1.94-.81.82-1.43,1.78-1.85,2.88-.43,1.1-.64,2.28-.64,3.54,0,1.09.15,2.11.47,3.08.31.96.8,1.86,1.47,2.68.67.82,1.52,1.57,2.56,2.25s2.29,1.27,3.75,1.78c-1.45-.23-2.74-.62-3.87-1.17-1.13-.54-2.09-1.23-2.88-2.06-.78-.83-1.39-1.79-1.81-2.89-.42-1.1-.63-2.32-.63-3.67Zm14.39,4.36h7.18c-.03.09-.07.23-.13.41-.05.18-.11.34-.17.48h-6.88v-.89Zm9.02-8.84h5.78V2h.93v9.72h-6.71v-.89Zm6.48,20.63v-15.18h.93v16.06h-6.53v-.89h5.6Z"/><path class="cls-1" d="m62.97,26.11h6.3V4.55h-6.3V.82h34.67v9.09h-5.25v-5.36h-17.65v9.19h11.7v2.91h-11.7v9.47h17.65v-5.36h5.25v9.09h-34.67v-3.73Zm1.4-19.93h3.92v.89h-3.92v-.89Zm34.95,25.3v-9.42h.93v10.31h-35.88v-.89h34.95Zm-22.9-25.3h14.99v.89h-14.06v5.27h-.93v-6.16Zm0,12.1h11.68v-3.38h.93v4.27h-11.68v5.55h-.93v-6.44Zm17.37-6.74h5.53V1.98h.93v10.45h-6.46v-.89Z"/><path class="cls-1" d="m108.6,26.11h5.83V4.55h-6.3V.82h13.64l20.4,21.15V4.55h-6.29V.82h17.84v3.73h-6.29v25.3h-5.01l-22.73-24.06v20.33h6.3v3.73h-17.37v-3.73Zm.93-19.93l3.92.89h-3.92v-.89Zm18.12,25.3v-4.06h.93v4.94h-18.58v-.89h17.65Zm-6.3-22.52l.93,1.03v14.74h-.93v-15.76Zm4.92-6.97l14.99,15.11v1.35L125.04,1.98h1.24Zm11,4.2h3.92v.89h-3.92v-.89Zm11.82,25.3V6.18h6.29V1.98h.93v5.08h-6.29v25.3h-6.23v-.89h5.29Z"/><path class="cls-1" d="m162.39,26.11h6.3V4.55h-6.3V.82h34.67v9.09h-5.25v-5.36h-17.65v9.19h11.7v2.91h-11.7v9.47h17.65v-5.36h5.25v9.09h-34.67v-3.73Zm1.4-19.93h3.92v.89h-3.92v-.89Zm34.95,25.3v-9.42h.93v10.31h-35.88v-.89h34.95Zm-22.9-25.3h14.99v.89h-14.06v5.27h-.93v-6.16Zm0,12.1h11.68v-3.38h.93v4.27h-11.68v5.55h-.93v-6.44Zm17.37-6.74h5.53V1.98h.93v10.45h-6.46v-.89Z"/><path class="cls-1" d="m207.76,26.11h6.09V4.55h-6.44V.82h19.1c1.79,0,3.4.03,4.84.09,1.44.06,2.74.2,3.91.42,1.37.26,2.53.63,3.49,1.1s1.74,1.03,2.34,1.69c.61.66,1.04,1.41,1.32,2.24.27.83.41,1.74.41,2.72,0,1.79-.56,3.34-1.68,4.66s-2.81,2.33-5.06,3.03c-.28.09-.57.17-.87.25-.3.07-.61.14-.92.22.82.44,1.65.99,2.47,1.66.82.67,1.58,1.4,2.29,2.19.7.79,1.31,1.62,1.83,2.48.52.86.89,1.71,1.11,2.55h4.71v3.73h-16.46v-3.73h5.55c-.26-.84-.68-1.7-1.24-2.59-.56-.89-1.24-1.72-2.03-2.5-.79-.78-1.69-1.45-2.69-2.03-1-.57-2.07-.96-3.21-1.17h-7.51v8.28h5.69v3.73h-17.02v-3.73Zm.91-19.93h3.71v.89h-3.71v-.89Zm17.84,25.3v-4.06h.93v4.94h-18.19v-.89h17.25Zm1-17.37c1.87,0,3.41-.1,4.64-.31,1.23-.21,2.21-.52,2.95-.93.74-.41,1.26-.92,1.56-1.53.3-.61.46-1.3.46-2.07,0-.96-.34-1.83-1.03-2.6-.68-.77-1.77-1.34-3.26-1.71-.7-.17-1.49-.28-2.38-.33-.89-.05-1.87-.07-2.94-.07h-8.42v9.56h8.42Zm-6.74-7.93h6.74c1.27,0,2.34.03,3.19.08.85.05,1.58.15,2.17.29.59.14,1.08.32,1.47.55.39.23.75.51,1.07.85-.31-.14-.68-.26-1.11-.37s-.95-.2-1.57-.28c-.62-.08-1.36-.14-2.2-.18-.85-.04-1.85-.06-3.02-.06h-5.81v5.64h-.93v-6.53Zm0,13.29h2.82c1.49,0,2.82.12,3.98.36,1.16.24,2,.66,2.53,1.25-.43-.12-.87-.23-1.29-.33s-.91-.17-1.45-.22c-.54-.05-1.16-.1-1.87-.13-.71-.03-1.56-.05-2.55-.05h-1.24v4.36h-.93v-5.25Zm27.58,12.01v-4.06h.93v4.94h-18.07v-.89h17.14Zm-10.52-13.83c1.04-.31,1.97-.75,2.8-1.31.82-.56,1.52-1.21,2.09-1.96s1-1.57,1.31-2.47c.3-.9.45-1.84.45-2.82,0-.68-.07-1.34-.21-1.98-.14-.64-.38-1.25-.72-1.83s-.8-1.15-1.38-1.69c-.58-.54-1.29-1.07-2.15-1.59.96.36,1.79.79,2.48,1.29.69.51,1.26,1.07,1.7,1.69.44.62.77,1.28.98,1.97.21.69.31,1.4.31,2.13,0,.9-.12,1.78-.36,2.63-.24.85-.61,1.67-1.1,2.44-.49.77-1.12,1.47-1.88,2.11-.76.64-1.66,1.18-2.68,1.63.47.37.93.84,1.39,1.39.46.55.89,1.14,1.29,1.77.4.63.77,1.26,1.1,1.89s.58,1.21.77,1.74h-1.1c-.23-.61-.53-1.25-.88-1.92s-.75-1.33-1.19-1.97c-.44-.64-.92-1.23-1.43-1.78-.51-.55-1.05-1.01-1.61-1.36Z"/><path class="cls-1" d="m250.34,26.11h5.04l15.34-25.3h5.04l15.06,25.3h6.06v3.73h-17.95v-3.73h5.64l-3.38-5.95h-16.34l-3.29,5.95h5.39v3.73h-16.6v-3.73Zm18.28,5.36v-4.08h.93v4.97h-18.19v-.89h17.25Zm-2.87-9.68h15.23l.42.89h-14.95l-1.1,2.03h-1.19l1.58-2.91Zm13.76-4.55l-6.6-11.59-6.43,11.59h13.03Zm-6.18-8.93l.56,1.03-3.75,6.5h-1.14l4.34-7.53Zm6.13-6.32l13.5,22.71h-1.07l-13.5-22.71h1.07Zm19.07,29.47v-4.08h.98v4.97h-19.59v-.89h18.61Z"/><path class="cls-1" d="m303.24,26.11h6.06V4.55h-6.46V.82h18.28v3.73h-6.53v21.57h16.2v-6.76h5.25v10.49h-32.8v-3.73Zm1-19.7h4.08v.89h-4.08v-.89Zm33.48,25.06v-10.82h.93v11.7h-34.02v-.89h33.08Zm-21.45-25.06h6.5V1.98h.93v5.32h-6.5v17.42h-.93V6.41Z"/></g><g><path class="cls-1" d="m.35,82.93h6.09v-21.57H0v-3.73h19.1c1.79,0,3.4.03,4.84.09,1.44.06,2.74.2,3.91.42,1.37.26,2.53.63,3.49,1.1.96.47,1.74,1.03,2.34,1.69.61.66,1.05,1.41,1.32,2.24s.41,1.74.41,2.72c0,1.79-.56,3.34-1.68,4.66s-2.81,2.33-5.06,3.03c-.28.09-.57.17-.87.25-.3.07-.61.14-.92.22.82.44,1.65.99,2.47,1.66.82.67,1.59,1.4,2.28,2.19.7.79,1.31,1.62,1.83,2.48.52.86.89,1.71,1.11,2.55h4.71v3.73h-16.46v-3.73h5.55c-.26-.84-.68-1.7-1.24-2.59-.56-.89-1.24-1.72-2.03-2.5-.79-.78-1.69-1.45-2.69-2.03-1-.57-2.07-.96-3.21-1.17h-7.51v8.28h5.69v3.73H.35v-3.73Zm.91-19.93h3.71v.89H1.26v-.89Zm17.84,25.3v-4.06h.93v4.94H1.84v-.89h17.25Zm1-17.37c1.87,0,3.41-.1,4.64-.31,1.23-.21,2.21-.52,2.95-.93.74-.41,1.26-.92,1.56-1.53.3-.61.45-1.3.45-2.07,0-.96-.34-1.83-1.03-2.6-.68-.77-1.77-1.34-3.26-1.71-.7-.17-1.49-.28-2.38-.33-.89-.05-1.87-.07-2.94-.07h-8.42v9.56h8.42Zm-6.74-7.93h6.74c1.27,0,2.34.03,3.19.08.85.05,1.58.15,2.17.29.59.14,1.08.32,1.47.55.39.23.75.51,1.07.85-.31-.14-.68-.26-1.11-.37-.43-.11-.95-.2-1.57-.28-.62-.08-1.36-.14-2.2-.18-.85-.04-1.85-.06-3.02-.06h-5.81v5.64h-.93v-6.53Zm0,13.29h2.82c1.49,0,2.82.12,3.98.36,1.16.24,2,.66,2.53,1.25-.44-.12-.87-.23-1.29-.33-.43-.09-.91-.17-1.45-.22-.54-.05-1.16-.1-1.87-.13-.71-.03-1.56-.05-2.55-.05h-1.24v4.36h-.93v-5.25Zm27.58,12.01v-4.06h.93v4.94h-18.07v-.89h17.14Zm-10.52-13.83c1.04-.31,1.97-.75,2.8-1.31.82-.56,1.52-1.21,2.09-1.96.57-.75,1-1.57,1.31-2.47.3-.9.45-1.84.45-2.82,0-.68-.07-1.34-.21-1.98-.14-.64-.38-1.25-.72-1.83-.34-.58-.8-1.15-1.38-1.69-.58-.54-1.29-1.07-2.15-1.59.96.36,1.79.79,2.48,1.29.69.51,1.26,1.07,1.7,1.69.44.62.77,1.28.98,1.97.21.69.31,1.4.31,2.13,0,.9-.12,1.78-.36,2.63-.24.85-.61,1.67-1.1,2.44-.49.77-1.12,1.47-1.88,2.11-.76.64-1.66,1.18-2.68,1.63.47.37.93.84,1.39,1.39s.89,1.14,1.29,1.77c.4.63.77,1.26,1.1,1.89.33.63.58,1.21.77,1.74h-1.1c-.23-.61-.52-1.25-.87-1.92-.35-.68-.75-1.33-1.19-1.97-.44-.64-.92-1.23-1.43-1.78-.51-.55-1.05-1.01-1.61-1.36Z"/><path class="cls-1" d="m46.42,82.93h6.29v-21.57h-6.29v-3.73h34.67v9.09h-5.25v-5.36h-17.65v9.19h11.7v2.91h-11.7v9.47h17.65v-5.36h5.25v9.09h-34.67v-3.73Zm1.4-19.93h3.92v.89h-3.92v-.89Zm34.95,25.3v-9.42h.93v10.31h-35.88v-.89h34.95Zm-22.9-25.3h14.99v.89h-14.06v5.27h-.93v-6.16Zm0,12.1h11.68v-3.38h.93v4.27h-11.68v5.55h-.93v-6.44Zm17.37-6.74h5.53v-9.56h.93v10.45h-6.46v-.89Z"/><path class="cls-1" d="m91.61,82.93h6.27v-21.57h-6.3v-3.73h34.3v8.39h-5.25v-4.66h-17.28v9.42h14.13v2.91h-14.13v9.23h9.65v3.73h-21.4v-3.73Zm1.38-19.93h3.92v.89h-3.92v-.89Zm21.71,25.3v-4.06h.93v4.94h-22.64v-.89h21.71Zm-9.65-25.3h14.67v.89h-13.71v5.5h-.96v-6.39Zm0,12.33h14.15v-3.38h.93v4.27h-14.15v5.32h-.93v-6.2Zm17-7.67h5.53v-8.86h.93v9.75h-6.46v-.89Z"/><path class="cls-1" d="m134.11,82.93h6.3v-21.57h-6.3v-3.73h34.67v9.09h-5.25v-5.36h-17.65v9.19h11.7v2.91h-11.7v9.47h17.65v-5.36h5.25v9.09h-34.67v-3.73Zm1.4-19.93h3.92v.89h-3.92v-.89Zm34.95,25.3v-9.42h.93v10.31h-35.88v-.89h34.95Zm-22.9-25.3h14.99v.89h-14.06v5.27h-.93v-6.16Zm0,12.1h11.68v-3.38h.93v4.27h-11.68v5.55h-.93v-6.44Zm17.37-6.74h5.53v-9.56h.93v10.45h-6.46v-.89Z"/><path class="cls-1" d="m179.48,82.93h6.09v-21.57h-6.44v-3.73h19.1c1.79,0,3.4.03,4.84.09,1.44.06,2.74.2,3.91.42,1.37.26,2.53.63,3.49,1.1s1.74,1.03,2.34,1.69c.61.66,1.04,1.41,1.32,2.24.27.83.41,1.74.41,2.72,0,1.79-.56,3.34-1.68,4.66s-2.81,2.33-5.06,3.03c-.28.09-.57.17-.87.25-.3.07-.61.14-.92.22.82.44,1.65.99,2.47,1.66.82.67,1.58,1.4,2.29,2.19.7.79,1.31,1.62,1.83,2.48.52.86.89,1.71,1.11,2.55h4.71v3.73h-16.46v-3.73h5.55c-.26-.84-.68-1.7-1.24-2.59-.56-.89-1.24-1.72-2.03-2.5-.79-.78-1.69-1.45-2.69-2.03-1-.57-2.07-.96-3.21-1.17h-7.51v8.28h5.69v3.73h-17.02v-3.73Zm.91-19.93h3.71v.89h-3.71v-.89Zm17.84,25.3v-4.06h.93v4.94h-18.19v-.89h17.25Zm1-17.37c1.87,0,3.41-.1,4.64-.31,1.23-.21,2.21-.52,2.95-.93.74-.41,1.26-.92,1.56-1.53.3-.61.46-1.3.46-2.07,0-.96-.34-1.83-1.03-2.6-.68-.77-1.77-1.34-3.26-1.71-.7-.17-1.49-.28-2.38-.33-.89-.05-1.87-.07-2.94-.07h-8.42v9.56h8.42Zm-6.74-7.93h6.74c1.27,0,2.34.03,3.19.08.85.05,1.58.15,2.17.29.59.14,1.08.32,1.47.55.39.23.75.51,1.07.85-.31-.14-.68-.26-1.11-.37s-.95-.2-1.57-.28c-.62-.08-1.36-.14-2.2-.18-.85-.04-1.85-.06-3.02-.06h-5.81v5.64h-.93v-6.53Zm0,13.29h2.82c1.49,0,2.82.12,3.98.36,1.16.24,2,.66,2.53,1.25-.43-.12-.87-.23-1.29-.33s-.91-.17-1.45-.22c-.54-.05-1.16-.1-1.87-.13-.71-.03-1.56-.05-2.55-.05h-1.24v4.36h-.93v-5.25Zm27.58,12.01v-4.06h.93v4.94h-18.07v-.89h17.14Zm-10.52-13.83c1.04-.31,1.97-.75,2.8-1.31.82-.56,1.52-1.21,2.09-1.96s1-1.57,1.31-2.47c.3-.9.45-1.84.45-2.82,0-.68-.07-1.34-.21-1.98-.14-.64-.38-1.25-.72-1.83s-.8-1.15-1.38-1.69c-.58-.54-1.29-1.07-2.15-1.59.96.36,1.79.79,2.48,1.29.69.51,1.26,1.07,1.7,1.69.44.62.77,1.28.98,1.97.21.69.31,1.4.31,2.13,0,.9-.12,1.78-.36,2.63-.24.85-.61,1.67-1.1,2.44-.49.77-1.12,1.47-1.88,2.11-.76.64-1.66,1.18-2.68,1.63.47.37.93.84,1.39,1.39.46.55.89,1.14,1.29,1.77.4.63.77,1.26,1.1,1.89s.58,1.21.77,1.74h-1.1c-.23-.61-.53-1.25-.88-1.92s-.75-1.33-1.19-1.97c-.44-.64-.92-1.23-1.43-1.78-.51-.55-1.05-1.01-1.61-1.36Z"/><path class="cls-1" d="m225.76,82.93h6.09v-21.57h-6.44v-3.73h19.1c1.79,0,3.4.03,4.84.09,1.44.06,2.74.2,3.91.42,1.37.26,2.53.63,3.49,1.1s1.74,1.03,2.34,1.69c.61.66,1.04,1.41,1.32,2.24.27.83.41,1.74.41,2.72,0,1.79-.56,3.34-1.68,4.66s-2.81,2.33-5.06,3.03c-.28.09-.57.17-.87.25-.3.07-.61.14-.92.22.82.44,1.65.99,2.47,1.66.82.67,1.58,1.4,2.29,2.19.7.79,1.31,1.62,1.83,2.48.52.86.89,1.71,1.11,2.55h4.71v3.73h-16.46v-3.73h5.55c-.26-.84-.68-1.7-1.24-2.59-.56-.89-1.24-1.72-2.03-2.5-.79-.78-1.69-1.45-2.69-2.03-1-.57-2.07-.96-3.21-1.17h-7.51v8.28h5.69v3.73h-17.02v-3.73Zm.91-19.93h3.71v.89h-3.71v-.89Zm17.84,25.3v-4.06h.93v4.94h-18.19v-.89h17.25Zm1-17.37c1.87,0,3.41-.1,4.64-.31,1.23-.21,2.21-.52,2.95-.93.74-.41,1.26-.92,1.56-1.53.3-.61.46-1.3.46-2.07,0-.96-.34-1.83-1.03-2.6-.68-.77-1.77-1.34-3.26-1.71-.7-.17-1.49-.28-2.38-.33-.89-.05-1.87-.07-2.94-.07h-8.42v9.56h8.42Zm-6.74-7.93h6.74c1.27,0,2.34.03,3.19.08.85.05,1.58.15,2.17.29.59.14,1.08.32,1.47.55.39.23.75.51,1.07.85-.31-.14-.68-.26-1.11-.37s-.95-.2-1.57-.28c-.62-.08-1.36-.14-2.2-.18-.85-.04-1.85-.06-3.02-.06h-5.81v5.64h-.93v-6.53Zm0,13.29h2.82c1.49,0,2.82.12,3.98.36,1.16.24,2,.66,2.53,1.25-.43-.12-.87-.23-1.29-.33s-.91-.17-1.45-.22c-.54-.05-1.16-.1-1.87-.13-.71-.03-1.56-.05-2.55-.05h-1.24v4.36h-.93v-5.25Zm27.58,12.01v-4.06h.93v4.94h-18.07v-.89h17.14Zm-10.52-13.83c1.04-.31,1.97-.75,2.8-1.31.82-.56,1.52-1.21,2.09-1.96s1-1.57,1.31-2.47c.3-.9.45-1.84.45-2.82,0-.68-.07-1.34-.21-1.98-.14-.64-.38-1.25-.72-1.83s-.8-1.15-1.38-1.69c-.58-.54-1.29-1.07-2.15-1.59.96.36,1.79.79,2.48,1.29.69.51,1.26,1.07,1.7,1.69.44.62.77,1.28.98,1.97.21.69.31,1.4.31,2.13,0,.9-.12,1.78-.36,2.63-.24.85-.61,1.67-1.1,2.44-.49.77-1.12,1.47-1.88,2.11-.76.64-1.66,1.18-2.68,1.63.47.37.93.84,1.39,1.39.46.55.89,1.14,1.29,1.77.4.63.77,1.26,1.1,1.89s.58,1.21.77,1.74h-1.1c-.23-.61-.53-1.25-.88-1.92s-.75-1.33-1.19-1.97c-.44-.64-.92-1.23-1.43-1.78-.51-.55-1.05-1.01-1.61-1.36Z"/><path class="cls-1" d="m268.34,82.93h5.04l15.34-25.3h5.04l15.06,25.3h6.06v3.73h-17.95v-3.73h5.64l-3.38-5.95h-16.34l-3.29,5.95h5.39v3.73h-16.6v-3.73Zm18.28,5.36v-4.08h.93v4.97h-18.19v-.89h17.25Zm-2.87-9.68h15.23l.42.89h-14.95l-1.1,2.03h-1.19l1.58-2.91Zm13.76-4.55l-6.6-11.59-6.43,11.59h13.03Zm-6.18-8.93l.56,1.03-3.75,6.5h-1.14l4.34-7.53Zm6.13-6.32l13.5,22.71h-1.07l-13.5-22.71h1.07Zm19.07,29.47v-4.08h.98v4.97h-19.59v-.89h18.61Z"/><path class="cls-1" d="m321.24,82.93h6.06v-21.57h-6.46v-3.73h18.28v3.73h-6.53v21.57h16.2v-6.76h5.25v10.49h-32.8v-3.73Zm1-19.7h4.08v.89h-4.08v-.89Zm33.48,25.06v-10.82h.93v11.7h-34.02v-.89h33.08Zm-21.45-25.06h6.5v-4.43h.93v5.32h-6.5v17.42h-.93v-18.3Z"/></g></g></g></svg>